<?xml version="1.0" standalone="no"?>
<!DOCTYPE svg PUBLIC "-//W3C//DTD SVG 20010904//EN"
 "http://www.w3.org/TR/2001/REC-SVG-20010904/DTD/svg10.dtd">
<svg version="1.0" xmlns="http://www.w3.org/2000/svg"
 width="220.000000pt" height="229.000000pt" viewBox="0 0 220.000000 229.000000"
 preserveAspectRatio="xMidYMid meet">
<metadata>
Created by potrace 1.16, written by Peter Selinger 2001-2019
</metadata>
<g transform="translate(0.000000,229.000000) scale(0.100000,-0.100000)"
fill="#000000" stroke="none">
<path d="M968 2280 c-301 -25 -543 -144 -671 -330 -17 -25 -66 -82 -108 -127
-158 -168 -208 -284 -165 -387 17 -42 74 -97 129 -126 l43 -23 18 -91 c37
-187 38 -197 24 -296 -18 -130 -15 -338 5 -423 41 -168 141 -278 344 -381 157
-79 313 -104 539 -86 227 17 393 73 491 163 53 48 131 162 156 229 15 39 24
48 61 62 111 42 171 173 136 295 -8 28 -6 43 11 80 11 25 34 81 50 124 20 55
40 88 68 115 60 57 90 188 91 389 0 281 -97 461 -333 617 -154 102 -265 148
-439 181 -101 19 -318 26 -450 15z m447 -152 c130 -25 223 -62 337 -134 239
-151 321 -309 304 -584 -6 -94 -26 -213 -38 -225 -9 -9 -205 45 -293 80 -146
58 -387 179 -471 236 -158 107 -279 139 -516 139 -167 0 -243 -13 -333 -55
-54 -26 -137 -98 -167 -145 l-16 -25 -38 31 c-26 21 -40 40 -42 60 -4 42 57
138 161 253 48 53 106 120 130 150 78 100 235 187 402 221 154 32 413 31 580
-2z m-499 -623 c91 -17 191 -62 295 -133 86 -58 244 -138 412 -207 88 -37 116
-53 112 -65 -2 -8 -16 -70 -30 -136 -14 -67 -32 -143 -39 -169 l-15 -47 32 6
c107 19 114 19 136 -3 16 -16 21 -33 21 -70 0 -71 -22 -94 -96 -101 l-58 -5
-12 -49 c-33 -130 -129 -261 -228 -309 -100 -49 -203 -68 -401 -74 -211 -6
-256 2 -405 74 -75 36 -110 60 -166 117 -62 62 -75 80 -92 138 -30 95 -36 212
-21 353 17 150 15 228 -10 341 -18 83 -24 134 -22 177 2 29 79 105 135 132 28
14 78 29 111 34 97 14 257 12 341 -4z"/>
<path d="M490 1200 c-34 -15 -33 -14 -19 -54 11 -30 15 -33 31 -25 22 12 104
15 135 5 18 -6 25 -1 38 23 14 29 14 31 -7 42 -30 16 -147 22 -178 9z"/>
<path d="M1128 1198 c-31 -11 -33 -16 -16 -52 9 -21 15 -24 37 -18 33 9 88 9
127 -1 26 -7 32 -5 37 10 2 10 8 25 11 34 6 12 -1 19 -25 28 -39 13 -134 13
-171 -1z"/>
<path d="M536 998 c-25 -36 -21 -121 7 -154 30 -34 52 -27 73 23 38 91 -30
202 -80 131z"/>
<path d="M1176 998 c-30 -43 -15 -158 22 -173 44 -17 72 23 72 103 0 56 -22
92 -55 92 -13 0 -31 -10 -39 -22z"/>
<path d="M823 910 c-60 -27 -85 -70 -80 -138 3 -45 9 -59 38 -88 22 -22 48
-37 72 -41 l37 -6 0 39 c0 35 -4 41 -30 51 -18 7 -32 21 -36 37 -9 35 0 54 36
74 25 14 30 23 30 55 0 43 -7 45 -67 17z"/>
</g>
</svg>
